<svg version="1.2" xmlns="http://www.w3.org/2000/svg" viewBox="0 0 64 64" width="64" height="64"><style>.a{fill:#fff}</style><path class="a" d="m26.1 24.1q0 0 0.1 0.1 0 0.1 0 0.1 0.1 0.1 0.1 0.2 0 0.1 0 0.1v13.5q0 0.2 0 0.3-0.1 0.2-0.2 0.3-0.1 0.1-0.3 0.1-0.1 0.1-0.3 0h-1.2q-0.1 0-0.2 0-0.1 0-0.2 0 0-0.1-0.1-0.2-0.1 0-0.1-0.1l-5.2-7.6q-0.1-0.2-0.2-0.4-0.1-0.2-0.2-0.4-0.1-0.1-0.2-0.3-0.1-0.2-0.2-0.4-0.5-0.9-0.7-1.5-0.2-0.5-0.2-0.6h-0.1c0 0 0 0.3 0.1 0.7 0.1 0.4 0.1 1 0.2 1.6q0 0.3 0.1 0.5 0 0.3 0 0.5 0 0.2 0 0.5 0 0.2 0 0.4v6.6q0 0.1 0 0.2 0 0 0 0.1 0 0.1-0.1 0.2 0 0 0 0.1-0.1 0-0.2 0.1 0 0-0.1 0-0.1 0-0.1 0-0.1 0-0.2 0h-1.1q-0.1 0-0.2 0 0 0-0.1 0-0.1 0-0.1 0-0.1-0.1-0.2-0.1 0-0.1-0.1-0.1 0-0.1 0-0.2 0-0.1 0-0.1 0-0.1 0-0.2v-13.5q0 0 0-0.1 0-0.1 0-0.2 0 0 0-0.1 0.1-0.1 0.1-0.1 0.1-0.1 0.2-0.1 0 0 0.1 0 0.1-0.1 0.1-0.1 0.1 0 0.2 0h1.2q0.1 0 0.2 0 0.1 0.1 0.2 0.1 0.1 0 0.2 0.1 0 0.1 0.1 0.2l5.1 7.5q0.1 0.2 0.2 0.4 0.2 0.2 0.3 0.4 0.1 0.2 0.2 0.4 0.1 0.2 0.2 0.4 0.4 0.8 0.6 1.4 0.2 0.6 0.2 0.6h0.2c0 0 0-0.3-0.1-0.7-0.2-0.4-0.2-1-0.3-1.6q0-0.3 0-0.5 0-0.2-0.1-0.5 0-0.2 0-0.5 0-0.2 0-0.4v-6.6q0 0 0-0.1 0-0.1 0-0.2 0.1 0 0.1-0.1 0-0.1 0.1-0.1 0-0.1 0.1-0.1 0.1 0 0.1 0 0.1-0.1 0.2-0.1 0.1 0 0.1 0h1.1q0.1 0 0.2 0 0.1 0 0.1 0.1 0.1 0 0.2 0 0 0 0.1 0.1z"/><path class="a" d="m30.5 40q-0.1 0-0.2 0.1 0 0-0.1 0-0.1 0-0.1 0-0.1 0-0.2 0h-1.1q-0.4 0-0.5-0.1 0-0.1 0-0.1-0.1-0.1-0.1-0.1 0-0.1 0.1-0.2 0 0 0-0.1l5.6-15q0 0 0-0.1 0.1-0.1 0.1-0.1 0.1-0.1 0.1-0.1 0.1-0.1 0.1-0.1 0.1-0.1 0.1-0.1 0.1 0 0.2 0 0 0 0.1 0 0.1 0 0.1 0h1.3q0.4 0 0.5 0.1 0 0.1 0 0.1 0 0.1 0 0.1 0 0.1 0 0.1 0 0.1 0 0.1l-5.6 15q-0.1 0.1-0.1 0.2-0.1 0-0.1 0.1-0.1 0.1-0.1 0.1-0.1 0.1-0.1 0.1z"/><path fill-rule="evenodd" class="a" d="m48.9 38.8h-1.1q-0.1 0-0.2 0-0.1 0-0.3 0-0.1 0-0.2 0-0.1-0.1-0.2-0.1-0.1 0-0.1-0.1-0.1 0-0.2-0.1 0-0.1 0-0.1-0.1-0.1-0.1-0.2l-1-2.7h-5.8l-1 2.7q0 0.1 0 0.2 0 0-0.1 0.1-0.1 0.1-0.1 0.1-0.1 0.1-0.1 0.1-0.2 0-0.3 0.1-0.1 0-0.2 0-0.1 0-0.2 0-0.1 0-0.3 0h-1q-0.7 0-0.4-0.7l5.2-13.6q0-0.1 0.1-0.1 0-0.1 0-0.2 0.1 0 0.1-0.1 0.1 0 0.1-0.1 0.1 0 0.2 0 0-0.1 0.1-0.1 0.1 0 0.1 0 0.1 0 0.2 0h1.1q0.1 0 0.1 0 0.1 0 0.2 0 0.1 0 0.1 0.1 0.1 0 0.2 0 0 0.1 0.1 0.1 0 0.1 0.1 0.1 0 0.1 0 0.1 0.1 0.1 0.1 0.2l5.2 13.6q0.3 0.7-0.4 0.7zm-6-11.1q-0.1-0.6-0.2-1v-0.4h-0.1q0 0.4-0.1 0.7 0 0.3-0.1 0.6 0 0.3-0.1 0.7-0.1 0.3-0.2 0.6l-1.6 4.4h4.3l-1.6-4.4q0-0.1-0.1-0.3 0-0.1-0.1-0.3 0-0.1 0-0.3-0.1-0.1-0.1-0.3z"/></svg>