<svg xmlns="http://www.w3.org/2000/svg" xmlns:xlink="http://www.w3.org/1999/xlink" viewBox="0 0 64 64">
  <defs>
    <linearGradient id="cloudGradient" x1="22.56" x2="39.2" y1="21.96" y2="50.8" gradientUnits="userSpaceOnUse">
      <stop offset="0" stop-color="#f3f7fe"/>
      <stop offset=".45" stop-color="#f3f7fe"/>
      <stop offset="1" stop-color="#deeafb"/>
    </linearGradient>
    <linearGradient id="a" x1="27.56" x2="38.27" y1="17.64" y2="36.19" gradientUnits="userSpaceOnUse">
      <stop offset="0" stop-color="#d4d7dd"/>
      <stop offset=".45" stop-color="#d4d7dd"/>
      <stop offset="1" stop-color="#bec1c6"/>
    </linearGradient>
    <linearGradient id="c" x1="19.96" x2="31.37" y1="29.03" y2="48.8" xlink:href="#a"/>
    <linearGradient id="b" x1="24.13" x2="27.87" y1="36.25" y2="42.75" gradientUnits="userSpaceOnUse">
      <stop offset="0" stop-color="#fde68a"/>
      <stop offset=".45" stop-color="#fde68a"/>
      <stop offset="1" stop-color="#fde171"/>
    </linearGradient>
    <linearGradient id="d" x1="14.13" x2="17.87" y1="21.25" y2="27.75" xlink:href="#b"/>
    <linearGradient id="e" x1="30.13" x2="33.87" y1="28.75" y2="35.25" xlink:href="#b"/>
  </defs>
  <!-- Cloud -->
  <path fill="url(#cloudGradient)" stroke="#e6effc" stroke-miterlimit="10" stroke-width=".5" d="M46.5 31.5h-.32a10.49 10.49 0 00-19.11-8 7 7 0 00-10.57 6 7.21 7.21 0 00.1 1.14A7.5 7.5 0 0018 45.5a4.19 4.19 0 00.5 0v0h28a7 7 0 000-14z"/>
  <!-- Dust-Wind -->
  <g transform="scale(0.75) translate(8, 16)">
    <path fill="none" stroke="url(#a)" stroke-dasharray="35 22" stroke-linecap="round" stroke-miterlimit="10" stroke-width="3" d="M43.64 20a5 5 0 113.61 8.46h-35.5">
      <animate attributeName="stroke-dashoffset" dur="2s" repeatCount="indefinite" values="-57; 57"/>
    </path>
    <path fill="none" stroke="url(#c)" stroke-dasharray="24 15" stroke-linecap="round" stroke-miterlimit="10" stroke-width="3" d="M29.14 44a5 5 0 103.61-8.46h-21">
      <animate attributeName="stroke-dashoffset" begin="-1.5s" dur="2s" repeatCount="indefinite" values="-39; 39"/>
    </path>
    <g>
      <path fill="none" stroke="url(#b)" stroke-linecap="round" stroke-miterlimit="10" stroke-width="3" d="M21.5 39.5h9"/>
      <animateTransform attributeName="transform" dur=".9s" repeatCount="indefinite" type="translate" values="0 0; 15 0"/>
      <animate attributeName="opacity" dur=".9s" repeatCount="indefinite" values="0; 1; 1; 1; 0"/>
    </g>
    <g>
      <path fill="none" stroke="url(#d)" stroke-linecap="round" stroke-miterlimit="10" stroke-width="3" d="M11.5 24.5h9"/>
      <animateTransform attributeName="transform" begin="-.3s" dur=".9s" repeatCount="indefinite" type="translate" values="-3 0; 18 0"/>
      <animate attributeName="opacity" begin="-.3s" dur=".9s" repeatCount="indefinite" values="0; 1; 1; 1; 0"/>
    </g>
    <g>
      <path fill="none" stroke="url(#e)" stroke-linecap="round" stroke-miterlimit="10" stroke-width="3" d="M27.5 32h9"/>
      <animateTransform attributeName="transform" begin="-.6s" dur=".9s" repeatCount="indefinite" type="translate" values="-6 0; 12 0"/>
      <animate attributeName="opacity" begin="-.6s" dur=".9s" repeatCount="indefinite" values="0; 1; 1; 1; 0"/>
    </g>
  </g>
</svg>
