<svg xmlns="http://www.w3.org/2000/svg" xmlns:xlink="http://www.w3.org/1999/xlink" viewBox="0 0 64 64">
  <defs>
    <linearGradient id="cloudGradient" x1="22.56" x2="39.2" y1="21.96" y2="50.8" gradientUnits="userSpaceOnUse">
      <stop offset="0" stop-color="#f3f7fe"/>
      <stop offset=".45" stop-color="#f3f7fe"/>
      <stop offset="1" stop-color="#deeafb"/>
    </linearGradient>
    <linearGradient id="rainGradient" x1="22.53" x2="25.47" y1="42.95" y2="48.05" gradientUnits="userSpaceOnUse">
      <stop offset="0" stop-color="#4286ee"/>
      <stop offset=".45" stop-color="#4286ee"/>
      <stop offset="1" stop-color="#0950bc"/>
    </linearGradient>
    <linearGradient id="windGradient" x1="27.56" y1="17.64" x2="38.27" y2="36.19" gradientUnits="userSpaceOnUse">
      <stop offset="0" stop-color="#d4d7dd"/>
      <stop offset="0.45" stop-color="#d4d7dd"/>
      <stop offset="1" stop-color="#bec1c6"/>
    </linearGradient>
    <linearGradient id="windGradient2" x1="19.96" y1="29.03" x2="31.37" y2="48.8" xlink:href="#windGradient"/>
  </defs>
  <!-- Cloud -->
  <path fill="url(#cloudGradient)" stroke="#e6effc" stroke-miterlimit="10" stroke-width=".5" d="M46.5 31.5h-.32a10.49 10.49 0 00-19.11-8 7 7 0 00-10.57 6 7.21 7.21 0 00.1 1.14A7.5 7.5 0 0018 45.5a4.19 4.19 0 00.5 0v0h28a7 7 0 000-14z"/>
  <!-- Raindrops -->
  <path fill="none" stroke="url(#rainGradient)" stroke-linecap="round" stroke-miterlimit="10" stroke-width="2" d="M24.39 43.03l-.78 4.94">
    <animateTransform attributeName="transform" dur="0.7s" repeatCount="indefinite" type="translate" values="1 -5; -2 10"/>
    <animate attributeName="opacity" dur="0.7s" repeatCount="indefinite" values="0;1;1;0"/>
  </path>
  <path fill="none" stroke="url(#rainGradient)" stroke-linecap="round" stroke-miterlimit="10" stroke-width="2" d="M31.39 43.03l-.78 4.94">
    <animateTransform attributeName="transform" begin="-0.4s" dur="0.7s" repeatCount="indefinite" type="translate" values="1 -5; -2 10"/>
    <animate attributeName="opacity" begin="-0.4s" dur="0.7s" repeatCount="indefinite" values="0;1;1;0"/>
  </path>
  <path fill="none" stroke="url(#rainGradient)" stroke-linecap="round" stroke-miterlimit="10" stroke-width="2" d="M38.39 43.03l-.78 4.94">
    <animateTransform attributeName="transform" begin="-0.2s" dur="0.7s" repeatCount="indefinite" type="translate" values="1 -5; -2 10"/>
    <animate attributeName="opacity" begin="-0.2s" dur="0.7s" repeatCount="indefinite" values="0;1;1;0"/>
  </path>
  <!-- Wind -->
  <g transform="scale(0.5) translate(32, 32)">
    <path d="M43.64,20a5,5,0,1,1,3.61,8.46H11.75" fill="none" stroke-dasharray="35 22" stroke-linecap="round" stroke-miterlimit="10" stroke-width="3" stroke="url(#windGradient)">
      <animate attributeName="stroke-dashoffset" values="-57; 57" dur="2s" repeatCount="indefinite"/>
    </path>
    <path d="M29.14,44a5,5,0,1,0,3.61-8.46h-21" fill="none" stroke-dasharray="24 15" stroke-linecap="round" stroke-miterlimit="10" stroke-width="3" stroke="url(#windGradient2)">
      <animate attributeName="stroke-dashoffset" values="-39; 39" dur="2s" repeatCount="indefinite"/>
    </path>
  </g>
</svg>
